<?xml version="1.0" encoding="UTF-8"?>
<!DOCTYPE svg PUBLIC "-//W3C//DTD SVG 1.1//EN" "http://www.w3.org/Graphics/SVG/1.1/DTD/svg11.dtd">
<svg version="1.1" xmlns="http://www.w3.org/2000/svg" xmlns:xlink="http://www.w3.org/1999/xlink" x="0" y="0" width="750" height="235" viewBox="0, 0, 750, 235">
  <g id="レイヤー_1">
    <g>
      <path d="M115.5,65.5 L115.5,84.13" fill-opacity="0" stroke="#000000" stroke-width="1" stroke-miterlimit="10"/>
      <g>
        <path d="M115.5,89.38 L112,82.38 L115.5,84.13 L119,82.38 z" fill="#000000"/>
        <path d="M115.5,89.38 L112,82.38 L115.5,84.13 L119,82.38 z" fill-opacity="0" stroke="#000000" stroke-width="1" stroke-miterlimit="10"/>
      </g>
      <path d="M145.5,35.5 L185.5,35.5" fill-opacity="0" stroke="#000000" stroke-width="1" stroke-miterlimit="10"/>
      <g>
        <path d="M25.5,5.5 L145.5,5.5 L145.5,65.5 L25.5,65.5 z" fill="#FFFFFF"/>
        <path d="M25.5,5.5 L145.5,5.5 L145.5,65.5 L25.5,65.5 z" fill-opacity="0" stroke="#000000" stroke-width="1"/>
      </g>
      <text transform="matrix(1, 0, 0, 1, 84.5, 34.5)">
        <tspan x="-13.002" y="4" font-family="Helvetica" font-size="12" fill="#000000">BMS</tspan>
      </text>
      <path d="M55.5,90.5 L55.5,71.87" fill-opacity="0" stroke="#000000" stroke-width="1" stroke-miterlimit="10"/>
      <g>
        <path d="M55.5,66.62 L59,73.62 L55.5,71.87 L52,73.62 z" fill="#000000"/>
        <path d="M55.5,66.62 L59,73.62 L55.5,71.87 L52,73.62 z" fill-opacity="0" stroke="#000000" stroke-width="1" stroke-miterlimit="10"/>
      </g>
      <g>
        <path d="M25.5,90.5 L145.5,90.5 L145.5,150.5 L25.5,150.5 z" fill="#FFFFFF"/>
        <path d="M25.5,90.5 L145.5,90.5 L145.5,150.5 L25.5,150.5 z" fill-opacity="0" stroke="#000000" stroke-width="1"/>
      </g>
      <text transform="matrix(1, 0, 0, 1, 84.5, 119.5)">
        <tspan x="-12.009" y="4" font-family="Helvetica" font-size="12" fill="#000000">LiPo</tspan>
      </text>
      <path d="M235.5,84.13 L235.5,35.5" fill-opacity="0" stroke="#000000" stroke-width="1" stroke-miterlimit="10"/>
      <g>
        <path d="M235.5,89.38 L232,82.38 L235.5,84.13 L239,82.38 z" fill="#000000"/>
        <path d="M235.5,89.38 L232,82.38 L235.5,84.13 L239,82.38 z" fill-opacity="0" stroke="#000000" stroke-width="1" stroke-miterlimit="10"/>
      </g>
      <path d="M235.5,150.5 L235.5,164.13" fill-opacity="0" stroke="#000000" stroke-width="1" stroke-miterlimit="10"/>
      <g>
        <path d="M235.5,169.38 L232,162.38 L235.5,164.13 L239,162.38 z" fill="#000000"/>
        <path d="M235.5,169.38 L232,162.38 L235.5,164.13 L239,162.38 z" fill-opacity="0" stroke="#000000" stroke-width="1" stroke-miterlimit="10"/>
      </g>
      <path d="M295.5,120.5 L319.13,120.5" fill-opacity="0" stroke="#000000" stroke-width="1" stroke-miterlimit="10"/>
      <g>
        <path d="M324.38,120.5 L317.38,124 L319.13,120.5 L317.38,117 z" fill="#000000"/>
        <path d="M324.38,120.5 L317.38,124 L319.13,120.5 L317.38,117 z" fill-opacity="0" stroke="#000000" stroke-width="1" stroke-miterlimit="10"/>
      </g>
      <g>
        <path d="M175.5,90.5 L295.5,90.5 L295.5,150.5 L175.5,150.5 z" fill="#FFFFFF"/>
        <path d="M175.5,90.5 L295.5,90.5 L295.5,150.5 L175.5,150.5 z" fill-opacity="0" stroke="#000000" stroke-width="1"/>
      </g>
      <text transform="matrix(1, 0, 0, 1, 234.5, 119.5)">
        <tspan x="-28.005" y="4" font-family="Helvetica" font-size="12" fill="#000000">DC/DC 5V</tspan>
      </text>
      <path d="M680.46,85.27 L680.5,35.56 L205.5,35.5" fill-opacity="0" stroke="#000000" stroke-width="1" stroke-miterlimit="10"/>
      <g>
        <path d="M680.46,90.52 L676.97,83.52 L680.46,85.27 L683.97,83.52 z" fill="#000000"/>
        <path d="M680.46,90.52 L676.97,83.52 L680.46,85.27 L683.97,83.52 z" fill-opacity="0" stroke="#000000" stroke-width="1" stroke-miterlimit="10"/>
      </g>
      <g>
        <path d="M625.5,90.5 L745.5,90.5 L745.5,150.5 L625.5,150.5 z" fill="#FFFFFF"/>
        <path d="M625.5,90.5 L745.5,90.5 L745.5,150.5 L625.5,150.5 z" fill-opacity="0" stroke="#000000" stroke-width="1"/>
      </g>
      <text transform="matrix(1, 0, 0, 1, 684.5, 119.5)">
        <tspan x="-26.341" y="4" font-family="Helvetica" font-size="12" fill="#000000">BMS LED</tspan>
      </text>
      <path d="M469.13,120.5 L465.5,120.5" fill-opacity="0" stroke="#000000" stroke-width="1" stroke-miterlimit="10"/>
      <g>
        <path d="M474.38,120.5 L467.38,124 L469.13,120.5 L467.38,117 z" fill="#000000"/>
        <path d="M474.38,120.5 L467.38,124 L469.13,120.5 L467.38,117 z" fill-opacity="0" stroke="#000000" stroke-width="1" stroke-miterlimit="10"/>
      </g>
      <path d="M595.5,120.5 L605.56,120.5 L605.56,200.5 L625.5,200.5" fill-opacity="0" stroke="#000000" stroke-width="1" stroke-miterlimit="10"/>
      <g>
        <path d="M475.5,90.5 L595.5,90.5 L595.5,150.5 L475.5,150.5 z" fill="#FFFFFF"/>
        <path d="M475.5,90.5 L595.5,90.5 L595.5,150.5 L475.5,150.5 z" fill-opacity="0" stroke="#000000" stroke-width="1"/>
      </g>
      <text transform="matrix(1, 0, 0, 1, 534.5, 119.5)">
        <tspan x="-36.691" y="4" font-family="Helvetica" font-size="12" fill="#000000">radio/decoder</tspan>
      </text>
      <path d="M185.5,35.5 L205.5,25.5" fill-opacity="0" stroke="#000000" stroke-width="1" stroke-miterlimit="10"/>
      <path d="M295.5,200.5 L319.13,200.5" fill-opacity="0" stroke="#000000" stroke-width="1" stroke-miterlimit="10"/>
      <g>
        <path d="M324.38,200.5 L317.38,204 L319.13,200.5 L317.38,197 z" fill="#000000"/>
        <path d="M324.38,200.5 L317.38,204 L319.13,200.5 L317.38,197 z" fill-opacity="0" stroke="#000000" stroke-width="1" stroke-miterlimit="10"/>
      </g>
      <g>
        <path d="M175.5,170.5 L295.5,170.5 L295.5,230.5 L175.5,230.5 z" fill="#FFFFFF"/>
        <path d="M175.5,170.5 L295.5,170.5 L295.5,230.5 L175.5,230.5 z" fill-opacity="0" stroke="#000000" stroke-width="1"/>
      </g>
      <text transform="matrix(1, 0, 0, 1, 234.5, 199.5)">
        <tspan x="-25.676" y="4" font-family="Helvetica" font-size="12" fill="#000000">IR sensor</tspan>
      </text>
      <path d="M535.5,84.13 L535.5,65.5" fill-opacity="0" stroke="#000000" stroke-width="1" stroke-miterlimit="10"/>
      <g>
        <path d="M535.5,89.38 L532,82.38 L535.5,84.13 L539,82.38 z" fill="#000000"/>
        <path d="M535.5,89.38 L532,82.38 L535.5,84.13 L539,82.38 z" fill-opacity="0" stroke="#000000" stroke-width="1" stroke-miterlimit="10"/>
      </g>
      <path d="M385.5,170.5 L385.5,156.87" fill-opacity="0" stroke="#000000" stroke-width="1" stroke-miterlimit="10"/>
      <g>
        <path d="M385.5,151.62 L389,158.62 L385.5,156.87 L382,158.62 z" fill="#000000"/>
        <path d="M385.5,151.62 L389,158.62 L385.5,156.87 L382,158.62 z" fill-opacity="0" stroke="#000000" stroke-width="1" stroke-miterlimit="10"/>
      </g>
      <g>
        <path d="M325.5,170.5 L445.5,170.5 L445.5,230.5 L325.5,230.5 z" fill="#FFFFFF"/>
        <path d="M325.5,170.5 L445.5,170.5 L445.5,230.5 L325.5,230.5 z" fill-opacity="0" stroke="#000000" stroke-width="1"/>
      </g>
      <text transform="matrix(1, 0, 0, 1, 384.5, 199.5)">
        <tspan x="-15.331" y="4" font-family="Helvetica" font-size="12" fill="#000000">(filter)</tspan>
      </text>
      <path d="M5.5,35.5 L19.13,35.5" fill-opacity="0" stroke="#000000" stroke-width="1" stroke-miterlimit="10"/>
      <g>
        <path d="M24.38,35.5 L17.38,39 L19.13,35.5 L17.38,32 z" fill="#000000"/>
        <path d="M24.38,35.5 L17.38,39 L19.13,35.5 L17.38,32 z" fill-opacity="0" stroke="#000000" stroke-width="1" stroke-miterlimit="10"/>
      </g>
      <text transform="matrix(1, 0, 0, 1, 460.557, 112.507)">
        <tspan x="-10.223" y="2.5" font-family="Helvetica" font-size="8" fill="#000000">SW B</tspan>
      </text>
      <g>
        <path d="M625.5,170.5 L745.5,170.5 L745.5,230.5 L625.5,230.5 z" fill="#FFFFFF"/>
        <path d="M625.5,170.5 L745.5,170.5 L745.5,230.5 L625.5,230.5 z" fill-opacity="0" stroke="#000000" stroke-width="1"/>
      </g>
      <text transform="matrix(1, 0, 0, 1, 684.775, 208.278)">
        <tspan x="-21.346" y="-11" font-family="Helvetica" font-size="12" fill="#000000">external</tspan>
        <tspan x="-45.354" y="4" font-family="Helvetica" font-size="12" kerning="0" fill="#000000">recorder/speaker</tspan>
      </text>
      <path d="M469.13,200.5 L465.56,200.5 L465.5,135.5" fill-opacity="0" stroke="#000000" stroke-width="1" stroke-miterlimit="10"/>
      <g>
        <path d="M474.38,200.5 L467.38,204 L469.13,200.5 L467.38,197 z" fill="#000000"/>
        <path d="M474.38,200.5 L467.38,204 L469.13,200.5 L467.38,197 z" fill-opacity="0" stroke="#000000" stroke-width="1" stroke-miterlimit="10"/>
      </g>
      <path d="M595.5,200.5 L619.13,200.5" fill-opacity="0" stroke="#000000" stroke-width="1" stroke-miterlimit="10"/>
      <g>
        <path d="M624.38,200.5 L617.38,204 L619.13,200.5 L617.38,197 z" fill="#000000"/>
        <path d="M624.38,200.5 L617.38,204 L619.13,200.5 L617.38,197 z" fill-opacity="0" stroke="#000000" stroke-width="1" stroke-miterlimit="10"/>
      </g>
      <g>
        <path d="M475.5,170.5 L595.5,170.5 L595.5,230.5 L475.5,230.5 z" fill="#FFFFFF"/>
        <path d="M475.5,170.5 L595.5,170.5 L595.5,230.5 L475.5,230.5 z" fill-opacity="0" stroke="#000000" stroke-width="1"/>
      </g>
      <text transform="matrix(1, 0, 0, 1, 536.195, 208.001)">
        <tspan x="-21.346" y="-11" font-family="Helvetica" font-size="12" fill="#000000">external</tspan>
        <tspan x="-36.691" y="4" font-family="Helvetica" font-size="12" kerning="0" fill="#000000">radio/decoder</tspan>
      </text>
      <path d="M445.5,120.5 L465.5,135.5" fill-opacity="0" stroke="#000000" stroke-width="1" stroke-miterlimit="10"/>
      <g>
        <path d="M325.5,90.5 L445.5,90.5 L445.5,150.5 L325.5,150.5 z" fill="#FFFFFF"/>
        <path d="M325.5,90.5 L445.5,90.5 L445.5,150.5 L325.5,150.5 z" fill-opacity="0" stroke="#000000" stroke-width="1"/>
      </g>
      <text transform="matrix(1, 0, 0, 1, 384.5, 119.5)">
        <tspan x="-14.666" y="4" font-family="Helvetica" font-size="12" fill="#000000">mixer</tspan>
      </text>
      <path d="M495.5,63 L505.56,62.97 L505.51,84.13" fill-opacity="0" stroke="#000000" stroke-width="1" stroke-miterlimit="10"/>
      <g>
        <path d="M505.5,89.38 L502.02,82.37 L505.51,84.13 L509.02,82.39 z" fill="#000000"/>
        <path d="M505.5,89.38 L502.02,82.37 L505.51,84.13 L509.02,82.39 z" fill-opacity="0" stroke="#000000" stroke-width="1" stroke-miterlimit="10"/>
      </g>
      <g>
        <path d="M425.5,45.5 L495.5,45.5 L495.5,80.5 L425.5,80.5 z" fill="#FFFFFF"/>
        <path d="M425.5,45.5 L495.5,45.5 L495.5,80.5 L425.5,80.5 z" fill-opacity="0" stroke="#000000" stroke-width="1"/>
      </g>
      <text transform="matrix(1, 0, 0, 1, 459.5, 61.5)">
        <tspan x="-27.346" y="4" font-family="Helvetica" font-size="12" fill="#000000">volume x2</tspan>
      </text>
      <path d="M535.5,35.5 L535.5,45.5" fill-opacity="0" stroke="#000000" stroke-width="1" stroke-miterlimit="10"/>
      <path d="M600.75,73.63 L565.56,73.56 L565.5,90.5" fill-opacity="0" stroke="#000000" stroke-width="1" stroke-miterlimit="10"/>
      <path d="M535.5,45.5 L545.5,59.5" fill-opacity="0" stroke="#000000" stroke-width="1" stroke-miterlimit="10"/>
      <path d="M600.75,59.88 L545.5,59.83" fill-opacity="0" stroke="#000000" stroke-width="1" stroke-miterlimit="10"/>
      <path d="M625.5,66.75 L655.56,66.85 L655.52,84.13" fill-opacity="0" stroke="#000000" stroke-width="1" stroke-miterlimit="10"/>
      <g>
        <path d="M655.5,89.38 L652.02,82.37 L655.52,84.13 L659.02,82.39 z" fill="#000000"/>
        <path d="M655.5,89.38 L652.02,82.37 L655.52,84.13 L659.02,82.39 z" fill-opacity="0" stroke="#000000" stroke-width="1" stroke-miterlimit="10"/>
      </g>
      <g>
        <path d="M595.5,53 Q625.5,53 625.5,66.75 Q625.5,80.5 595.5,80.5 Q610.5,66.75 595.5,53 z" fill="#FFFFFF"/>
        <path d="M595.5,53 Q625.5,53 625.5,66.75 Q625.5,80.5 595.5,80.5 Q610.5,66.75 595.5,53 z" fill-opacity="0" stroke="#000000" stroke-width="1" stroke-miterlimit="10"/>
      </g>
      <text transform="matrix(1, 0, 0, 1, 524.5, 59.369)">
        <tspan x="-10.223" y="0" font-family="Helvetica" font-size="8" fill="#000000">SW B</tspan>
      </text>
      <text transform="matrix(1, 0, 0, 1, 196.329, 44.11)">
        <tspan x="-10.004" y="0" font-family="Helvetica" font-size="8" fill="#000000">SW A</tspan>
      </text>
    </g>
  </g>
</svg>
